<?xml version="1.0" encoding="UTF-8" standalone="no"?>
<svg width="16px" height="18px" viewBox="0 0 16 18" version="1.1" xmlns="http://www.w3.org/2000/svg" xmlns:xlink="http://www.w3.org/1999/xlink" xmlns:sketch="http://www.bohemiancoding.com/sketch/ns">
    <!-- Generator: Sketch 3.1.1 (8761) - http://www.bohemiancoding.com/sketch -->
    <title>Path</title>
    <desc>Created with Sketch.</desc>
    <defs></defs>
    <g id="Page-1" stroke="none" stroke-width="1" fill="none" fill-rule="evenodd" sketch:type="MSPage">
        <path d="M13.5,3 L3.5,3 C3.2235,3 3,3.2235 3,3.5 C3,3.7765 3.2235,4 3.5,4 L12.293,4 L2.1465,14.1465 C2.056,14.237 2,14.362 2,14.5 C2,14.7765 2.2235,15 2.5,15 C2.638,15 2.763,14.944 2.8535,14.8535 L13,4.707 L13,13.5 C13,13.7765 13.2235,14 13.5,14 C13.7765,14 14,13.7765 14,13.5 L14,3.5 C14,3.2235 13.7765,3 13.5,3 L13.5,3 Z" id="Path" fill="#9B9B9B" sketch:type="MSShapeGroup" transform="translate(8.000000, 9.000000) rotate(-225.000000) translate(-8.000000, -9.000000) "></path>
    </g>
</svg>