<?xml version="1.0" encoding="utf-8"?>
<!-- Generator: Adobe Illustrator 15.0.0, SVG Export Plug-In . SVG Version: 6.00 Build 0)  -->
<!DOCTYPE svg PUBLIC "-//W3C//DTD SVG 1.1//EN" "http://www.w3.org/Graphics/SVG/1.1/DTD/svg11.dtd">
<svg version="1.1" id="Livello_1" xmlns="http://www.w3.org/2000/svg" xmlns:xlink="http://www.w3.org/1999/xlink" x="0px" y="0px"
	 width="20px" height="20px" viewBox="0 0 20 20" enable-background="new 0 0 20 20" xml:space="preserve">
<g>
	<path fill-rule="evenodd" clip-rule="evenodd" fill="#FFFFFF" d="M18.211,14.437c-0.446,1-0.672,1.484-1.226,2.349
		c-0.821,1.233-1.948,2.747-3.37,2.761c-1.275,0.013-1.568-0.812-3.297-0.803c-1.641,0.011-2.053,0.817-3.284,0.807
		c-1.376-0.013-2.461-1.386-3.273-2.603c-2.265-3.476-2.506-7.518-1.104-9.65c1-1.479,2.514-2.381,4.031-2.381
		c1.453,0,2.399,0.837,3.614,0.837c1.183,0,1.938-0.838,3.692-0.838c1.279,0,2.673,0.738,3.656,1.947
		C14.398,8.655,14.967,13.219,18.211,14.437L18.211,14.437z"/>
	<path fill-rule="evenodd" clip-rule="evenodd" fill="#FFFFFF" d="M12.695,3.558c0.586-0.812,1.109-1.955,0.901-3.114
		c-1.03,0.07-2.245,0.716-2.885,1.572C10.044,2.79,9.565,3.924,9.751,5.028C10.861,5.06,12.006,4.41,12.695,3.558L12.695,3.558z"/>
</g>
</svg>
