<?xml version="1.0" encoding="utf-8"?>
<!-- Generator: Adobe Illustrator 15.0.0, SVG Export Plug-In . SVG Version: 6.00 Build 0)  -->
<!DOCTYPE svg PUBLIC "-//W3C//DTD SVG 1.1//EN" "http://www.w3.org/Graphics/SVG/1.1/DTD/svg11.dtd">
<svg version="1.1" id="Livello_1" xmlns="http://www.w3.org/2000/svg" xmlns:xlink="http://www.w3.org/1999/xlink" x="0px" y="0px"
	 width="20px" height="20px" viewBox="0 0 20 20" enable-background="new 0 0 20 20" xml:space="preserve">
<g>
	<path fill-rule="evenodd" clip-rule="evenodd" fill="#FFFFFF" d="M17.051,6.416c-0.695,0-1.195,0.547-1.195,1.213v4.591
		c0,0.666,0.5,1.175,1.195,1.175c0.617,0,1.119-0.509,1.119-1.175V7.629C18.17,6.963,17.668,6.416,17.051,6.416z M2.999,6.416
		c-0.635,0-1.156,0.547-1.156,1.213v4.591c0,0.666,0.521,1.175,1.156,1.175c0.645,0,1.184-0.509,1.184-1.175V7.629
		C4.182,6.963,3.643,6.416,2.999,6.416z"/>
	<path fill-rule="evenodd" clip-rule="evenodd" fill="#FFFFFF" d="M4.855,6.451v8.453c0,0.481,0.429,0.91,0.91,0.91H6.8v2.55
		c0,0.662,0.538,1.195,1.156,1.195c0.656,0,1.194-0.533,1.194-1.195v-2.55h1.779v2.55c0,0.662,0.539,1.195,1.158,1.195
		c0.693,0,1.193-0.533,1.193-1.195v-2.55h0.996c0.559,0,0.949-0.429,0.949-0.91V6.451H4.855z"/>
	<path fill-rule="evenodd" clip-rule="evenodd" fill="#FFFFFF" d="M12.436,2.095l0.994-1.387c0.055-0.083,0.041-0.188-0.029-0.239
		c-0.072-0.051-0.174-0.025-0.229,0.056l-1.031,1.443C11.512,1.707,10.775,1.563,10,1.563c-0.736,0-1.474,0.143-2.141,0.405
		L6.866,0.525C6.811,0.444,6.708,0.418,6.637,0.469s-0.085,0.155-0.03,0.239l0.958,1.387C6.048,2.813,4.967,4.144,4.833,5.729
		h10.373C15.074,4.144,13.973,2.813,12.436,2.095z M7.824,4.274c-0.304,0-0.551-0.246-0.551-0.55c0-0.343,0.247-0.589,0.551-0.589
		c0.343,0,0.589,0.246,0.589,0.589C8.413,4.028,8.167,4.274,7.824,4.274z M12.244,4.274c-0.305,0-0.551-0.246-0.551-0.55
		c0-0.343,0.246-0.589,0.551-0.589c0.381,0,0.627,0.246,0.627,0.589C12.871,4.028,12.625,4.274,12.244,4.274z"/>
</g>
</svg>
