<?xml version="1.0" encoding="utf-8"?>
<!-- Generator: Adobe Illustrator 17.1.0, SVG Export Plug-In . SVG Version: 6.00 Build 0)  -->
<!DOCTYPE svg PUBLIC "-//W3C//DTD SVG 1.1//EN" "http://www.w3.org/Graphics/SVG/1.1/DTD/svg11.dtd">
<svg version="1.1" id="Livello_1" xmlns="http://www.w3.org/2000/svg" xmlns:xlink="http://www.w3.org/1999/xlink" x="0px" y="0px"
	 viewBox="0 0 200 80" enable-background="new 0 0 200 80" xml:space="preserve">
<path fill="#FFFFFF" d="M159.8,48.1c-0.4-0.1-0.8-0.4-0.9-0.9c-0.1-0.4-0.1-0.9,0.2-1.2l3.1-4.1c0.1-0.1,0.1-0.2,0.1-0.3
	c-0.7-2.5-0.7-5.2,0-7.8c2.1-7.4,9.9-11.7,17.2-9.8c3.7,1,6.7,3.3,8.6,6.6c1.9,3.3,2.4,7.1,1.4,10.8c-2,7.4-9.7,12-17.1,10.1
	c-2.6-0.6-4.9-2-6.7-3.9c-0.1-0.1-0.2-0.1-0.3-0.1l-5,0.7C160.1,48.2,159.9,48.2,159.8,48.1z M173.7,37.8c0,1.2,1,2.1,2.1,2.1
	c1.2,0,2.1-1,2.1-2.1c0-1.2-1-2.1-2.1-2.1C174.7,35.6,173.7,36.6,173.7,37.8z M181.2,37.8c0,1.2,1,2.1,2.1,2.1s2.1-1,2.1-2.1
	c0-1.2-1-2.1-2.1-2.1S181.2,36.6,181.2,37.8z M166.2,37.8c0,1.2,1,2.1,2.1,2.1c1.2,0,2.1-1,2.1-2.1c0-1.2-1-2.1-2.1-2.1
	C167.1,35.6,166.2,36.6,166.2,37.8z"/>
<g>
	<path fill="#FFFFFF" d="M15.4,30.6c0.9,0,1.8-0.3,2.4-1c0.7-0.7,1-1.5,1-2.5c0-0.9-0.3-1.8-1-2.5c-0.7-0.7-1.5-1-2.4-1
		c-1,0-1.8,0.3-2.5,1c-0.7,0.7-1,1.5-1,2.5c0,0.9,0.3,1.8,1,2.5C13.6,30.2,14.5,30.6,15.4,30.6z"/>
	<path fill="#FFFFFF" d="M150.5,47.4c0.7-0.1,1.4,0.4,1.4,1.1v1.7c0,0.4-0.2,0.8-0.6,1c-0.4,0.2-0.8,0.4-1.2,0.5
		c-0.7,0.2-1.4,0.2-2,0.2c-1,0-1.8-0.3-2.6-0.8c-0.5-0.4-1-0.9-1.4-1.5c-1.6,1.4-3.7,2.3-5.9,2.3c-2.9,0-5.4-1.4-7-3.4
		c-1.3,1.3-3.3,2.8-4.9,3.2c-0.7,0.2-1.4,0.2-2,0.2c-0.7,0-1.4-0.2-2-0.5c-0.6-0.3-1.1-0.7-1.5-1.2c-0.4-0.5-0.8-1.1-1-1.7
		c-0.2-0.7-0.3-1.3-0.3-2v-4.3h0V41c0-0.7-0.2-1.3-0.5-1.8c-0.4-0.5-0.9-0.7-1.6-0.7c-0.7,0-1.3,0.2-1.8,0.6c-0.4,0.4-0.8,1-1,1.6
		c0,0.1-0.1,0.2-0.1,0.4c-0.1,0.2-0.1,0.4-0.1,0.4v8.8c0,0.6-0.5,1.1-1.1,1.1h-1.3l0,0h-1.2c-0.6,0-1.1-0.5-1.1-1.1v-8.2V41
		c0-0.7-0.2-1.3-0.5-1.8c-0.4-0.5-0.9-0.7-1.6-0.7c-0.8,0-1.4,0.2-1.8,0.7c0,0,0,0,0,0c0.8,1.6,1.1,3.5,0.7,5.5
		c-0.7,3.7-3.8,6.6-7.6,7.1c-5.1,0.6-9.4-3.1-9.9-7.9c-0.5,0.1-1,0.2-1.5,0.3c-0.6,4.3-4.3,7.7-8.8,7.7c-3,0-5.6-1.5-7.2-3.7l0,0
		c-1,1-2.4,2.1-3.7,2.9c-0.4,0.3-0.8,0.4-1.2,0.6c-0.1,0-0.2,0.1-0.3,0.1c-0.7,0.2-1.4,0.2-2,0.2c-0.7,0-1.4-0.2-2-0.5c0,0,0,0,0,0
		c-0.1,0-0.1-0.1-0.2-0.1c-0.1-0.1-0.2-0.1-0.3-0.2c-0.1,0-0.1-0.1-0.2-0.1c0,0-0.1-0.1-0.1-0.1c-0.1-0.1-0.1-0.1-0.2-0.2
		c-0.1-0.1-0.3-0.2-0.4-0.4c-0.1-0.1-0.1-0.1-0.2-0.2c0,0,0-0.1-0.1-0.1c0-0.1-0.1-0.1-0.1-0.2c-0.1-0.2-0.2-0.3-0.4-0.5
		c-1.6,1.5-3.7,2.4-6,2.4c-2.8,0-5.3-1.3-6.9-3.4c-1.3,1.3-3.3,2.7-4.9,3.2c-0.7,0.2-1.4,0.2-2,0.2c-0.7,0-1.4-0.2-2-0.5
		c-0.3-0.2-0.6-0.3-0.8-0.5c-0.1-0.1-0.1-0.1-0.2-0.2c-0.2-0.2-0.4-0.3-0.5-0.5c-0.4-0.5-0.8-1.1-1-1.7c-0.1-0.3-0.2-0.5-0.2-0.8
		c-0.1-0.4-0.1-1-0.1-1.4V41c0-0.7-0.2-1.3-0.5-1.8s-0.9-0.7-1.6-0.7c-0.7,0-1.3,0.2-1.8,0.6c-0.4,0.4-0.8,1-1,1.6
		c0,0.1-0.1,0.2-0.1,0.4c-0.1,0.2-0.1,0.4-0.1,0.4v8.8c0,0.6-0.5,1.1-1.1,1.1h-2.8c-0.6,0-1.1-0.5-1.1-1.1v-2
		c-1.3,1.3-3.3,2.8-4.9,3.3c-0.7,0.2-1.3,0.2-2,0.2c-0.7,0-1.4-0.2-2-0.5c-0.6-0.3-1.1-0.7-1.5-1.2c-0.4-0.5-0.8-1.1-1-1.7
		c-0.2-0.7-0.3-1.3-0.3-2v-6.8h-1.8c-0.6,0-1.1-0.5-1.1-1.1v-2.8c0-0.6,0.5-1.1,1.1-1.1l5.7,0c0.6,0,1.1,0.5,1.1,1.1v9.3
		c0,0.5,0.2,0.9,0.5,1.2c0.4,0.3,0.8,0.4,1.2,0.4c1.8,0,4.1-2.2,5-4.5v-6.4c0-0.6,0.5-1.1,1.1-1.1h2.8c0.6,0,1.1,0.5,1.1,1.1v0.5
		c0.5-0.7,1.1-1.2,1.9-1.5c0.8-0.3,1.6-0.5,2.4-0.5c0.9,0,1.7,0.2,2.4,0.5c0.7,0.3,1.3,0.8,1.9,1.3c0.5,0.6,0.9,1.2,1.2,2
		c0.3,0.7,0.4,1.5,0.4,2.4V45c0,0.5,0.2,0.9,0.5,1.2c0.4,0.3,0.8,0.4,1.3,0.4c1,0,2.2-0.7,3.2-1.8c-0.3-1.5-0.3-3.1,0.3-4.8
		c1.1-3.1,3.9-5.4,7.2-5.9c2.4-0.3,4.6,0.4,6.4,1.6v-11c0-0.6,0.5-1.1,1.1-1.1h2.8c0.6,0,1.1,0.5,1.1,1.1v17.3h0V45
		c0,0.5,0.2,0.9,0.5,1.2c0.4,0.3,0.8,0.4,1.3,0.4c1.7,0,2.7-1.4,3.7-2.6c0-0.4-0.1-0.7-0.1-1.1c0-4.9,4-8.9,8.9-8.9
		c3.7,0,6.9,2.3,8.2,5.6c0.9,0,2-0.3,3-0.8c1.5-2.8,4.4-4.8,7.9-4.8c2.5,0,4.8,1,6.4,2.7l0.4-0.5c0.5-0.7,1.2-1.2,1.9-1.5
		c0.8-0.3,1.6-0.5,2.4-0.5c0.9,0,1.7,0.2,2.4,0.5c0.7,0.3,1.3,0.8,1.9,1.3c0.3,0.3,0.5,0.6,0.7,1l0.7-0.8c0.5-0.7,1.2-1.2,1.9-1.5
		c0.8-0.3,1.6-0.5,2.4-0.5c0.9,0,1.7,0.2,2.4,0.5c0.7,0.3,1.3,0.8,1.9,1.3c0.5,0.6,0.9,1.2,1.2,2c0.3,0.7,0.4,1.5,0.4,2.4v4.6
		c0,0.1,0,0.2,0,0.3c0.1,0.3,0.2,0.6,0.5,0.8c0.4,0.3,0.8,0.4,1.3,0.4c1.1,0,2.3-0.8,3.3-1.9c-0.3-1.5-0.2-3.1,0.4-4.7
		c1.1-3.1,3.8-5.3,7.1-5.8c2.4-0.3,4.6,0.3,6.4,1.5v0c0-0.6,0.5-1.1,1.1-1.1h2.8c0.6,0,1.1,0.5,1.1,1.1v10.1c0,0.5,0.2,0.9,0.5,1.2
		c0.3,0.3,0.8,0.4,1.3,0.4C150.2,47.4,150.4,47.4,150.5,47.4z M54.3,38.5c-2.4,0-4.4,2-4.4,4.4c0,2.4,2,4.4,4.4,4.4
		c2.4,0,4.4-2,4.4-4.4C58.7,40.5,56.7,38.5,54.3,38.5z M78.2,38.6c-2.4,0-4.4,2-4.4,4.4c0,2.4,2,4.4,4.4,4.4c2.4,0,4.4-2,4.4-4.4
		C82.7,40.6,80.7,38.6,78.2,38.6z M97.3,38.6c-2.4,0-4.4,2-4.4,4.4c0,2.4,2,4.4,4.4,4.4c2.4,0,4.4-2,4.4-4.4
		C101.8,40.6,99.8,38.6,97.3,38.6z M138.5,38.6c-2.4,0-4.4,2-4.4,4.4c0,2.4,2,4.4,4.4,4.4s4.4-2,4.4-4.4
		C142.9,40.6,141,38.6,138.5,38.6z"/>
</g>
</svg>
